<svg width="44" height="38" viewBox="0 0 44 38" fill="none" xmlns="http://www.w3.org/2000/svg">
<path d="M38.7974 9.43325C41.2118 9.43325 43.1691 7.50758 43.1691 5.13215C43.1691 2.75672 41.2118 0.831055 38.7974 0.831055C36.3829 0.831055 34.4256 2.75672 34.4256 5.13215C34.4256 7.50758 36.3829 9.43325 38.7974 9.43325Z" fill="black"/>
<path d="M31.1156 8.03778C31.0933 7.9897 31.0744 7.94026 31.0507 7.89356C30.6448 6.87761 29.9374 6.00546 29.0206 5.39067C28.1037 4.77589 27.02 4.44698 25.9105 4.44678C22.8657 4.44678 21.1444 7.21437 20.8023 7.81184C20.7507 7.90249 20.7095 7.9794 20.6816 8.03366L16.2715 17.4558C15.4366 15.5128 14.602 13.5697 13.7676 11.6267C13.7502 11.5834 13.7265 11.5258 13.6978 11.4578C13.2867 10.5739 12.1622 9.23684 10.4869 9.23684C8.49339 9.23684 7.41913 11.1432 7.33327 11.2971C7.27185 11.4097 7.22717 11.5079 7.19367 11.5793L1.22068 23.8838L1.15088 24.0342C0.985883 24.3325 0.882226 24.6599 0.845829 24.9976C0.809432 25.3354 0.841007 25.6769 0.938751 26.0026C1.13616 26.6605 1.5911 27.2142 2.2035 27.5421C2.50673 27.7044 2.83949 27.8064 3.18278 27.8422C3.52607 27.878 3.87317 27.8469 4.20426 27.7508C4.87292 27.5566 5.43577 27.109 5.769 26.5065L5.92745 26.2551L9.45387 20.6396L11.9695 28.5756C11.9891 28.6395 12.0065 28.704 12.0296 28.7659C12.2461 29.5635 12.7 30.2793 13.333 30.8212C13.9661 31.3632 14.7493 31.7065 15.5822 31.8072C16.4151 31.9079 17.2596 31.7613 18.0072 31.3863C18.7547 31.0113 19.3713 30.4249 19.7776 29.7026L24.1808 22.8111L26.8486 31.3103C26.8786 31.4085 26.9072 31.5074 26.9407 31.6042C26.9826 31.7576 27.0292 31.9084 27.0803 32.0567C27.3258 32.965 27.7618 33.8126 28.3605 34.545C28.9591 35.2775 29.707 35.8784 30.556 36.3091C31.405 36.7399 32.3363 36.9909 33.2899 37.0461C34.2435 37.1013 35.1983 36.9593 36.0927 36.6294C36.9872 36.2994 37.8015 35.7889 38.4832 35.1305C39.1649 34.4722 39.6989 33.6806 40.0509 32.8069C40.4028 31.9332 40.5648 30.9966 40.5265 30.0576C40.4881 29.1185 40.2503 28.1977 39.8283 27.3546C39.783 27.2454 39.7327 27.1383 39.6825 27.0311L31.1156 8.03778Z" fill="black"/>
</svg>
